<svg width="727" height="883" viewBox="0 0 727 883" fill="none" xmlns="http://www.w3.org/2000/svg">
<path d="M0 0C0 0 28.5 90 50.5 130.5C72.5 171 88.5 204 123.5 253C158.5 302 189.5 330.5 199 341C208.5 351.5 260.5 396 292 413.5C323.5 431 345 442 370 451.5C395 461 452.5 480.5 452.5 480.5C452.5 480.5 512.117 507.66 545.5 532.5C577.63 556.408 599.5 579.5 619.5 603.5C639.5 627.5 657.5 656 670.5 682.5C683.5 709 687.5 712 707 777.5C726.5 843 726.5 881.5 726.5 881.5L0.5 883.5L0 0Z" fill="#2B4F82"/>
</svg>
